<svg xmlns="http://www.w3.org/2000/svg" version="1.1" xmlns:xlink="http://www.w3.org/1999/xlink" xmlns:svgjs="http://svgjs.dev/svgjs" width="1500" height="1500" viewBox="0 0 1500 1500"><rect width="1500" height="1500" fill="#ffffff"></rect><g transform="matrix(0.6666666666666666,0,0,0.6666666666666666,249.39393939393938,435.99032258064517)"><svg viewBox="0 0 396 248" data-background-color="#ffffff" preserveAspectRatio="xMidYMid meet" height="939" width="1500" xmlns="http://www.w3.org/2000/svg" xmlns:xlink="http://www.w3.org/1999/xlink"><g id="tight-bounds" transform="matrix(1,0,0,1,0.2400000000000091,0.4000000000000057)"><svg viewBox="0 0 395.52 247.2" height="247.2" width="395.52"><g><svg></svg></g><g><svg viewBox="0 0 395.52 247.2" height="247.2" width="395.52"><g transform="matrix(1,0,0,1,75.54432,98.06834943343436)"><svg viewBox="0 0 244.43135999999998 51.06330113313126" height="51.06330113313126" width="244.43135999999998"><g><svg viewBox="0 0 244.43135999999998 51.06330113313126" height="51.06330113313126" width="244.43135999999998"><g><svg viewBox="0 0 244.43135999999998 51.06330113313126" height="51.06330113313126" width="244.43135999999998"><g><svg viewBox="0 0 244.43135999999998 51.06330113313126" height="51.06330113313126" width="244.43135999999998"><g id="textblocktransform"><svg viewBox="0 0 244.43135999999998 51.06330113313126" height="51.06330113313126" width="244.43135999999998" id="textblock"><g><svg viewBox="0 0 244.43135999999998 51.06330113313126" height="51.06330113313126" width="244.43135999999998"><g transform="matrix(1,0,0,1,0,0)"><svg width="244.43135999999998" viewBox="-0.95 -34.55 214.42999999999998 44.8" height="51.06330113313126" data-palette-color="#1f1816"><path d="M14.5-14.3L14.5-14.3Q15.2-14.3 15.2-12.65L15.2-12.65Q15.2-10.15 12.73-7.98 10.25-5.8 7.05-5.8L7.05-5.8Q5-5.8 3.1-6.8L3.1-6.8Q-0.95-9-0.95-14.45L-0.95-14.45Q-0.95-18.3 1.15-22L1.15-22Q4.05-27.05 9.47-30 14.9-32.95 20.05-32.95L20.05-32.95Q23.8-32.95 26.2-31.3L26.2-31.3Q28.9-29.45 28.9-25.8L28.9-25.8Q28.9-21.15 24.4-11.23 19.9-1.3 19.9 0L19.9 0Q19.9 0.4 20.15 0.25L20.15 0.25Q21.45-0.6 32.08-13.33 42.7-26.05 46.85-29.05L46.85-29.05Q50.55-31.8 53.03-33.18 55.5-34.55 58.1-34.55L58.1-34.55Q58.8-34.55 59.15-34.5L59.15-34.5Q60.5-34.4 60.5-33.1L60.5-33.1Q60.5-32.45 60.05-32.45L60.05-32.45Q60-32.45 59.35-32.68 58.7-32.9 58.25-32.9L58.25-32.9Q51.25-32.9 39.4-20.25L39.4-20.25Q34.95-15.5 28.58-7.45 22.2 0.6 21.05 1.25L21.05 1.25Q17 3.55 16.5 3.55L16.5 3.55Q16.35 3.55 16.35 3.05L16.35 3.05Q16.35 1.4 19.15-5.35L19.15-5.35Q20.3-7.95 22.5-13.15L22.5-13.15 24.8-19.9Q26-23.3 26-24.85L26-24.85Q26-28.3 24-30.1 22-31.9 18.25-31.9 14.5-31.9 10.2-29.25L10.2-29.25Q5.55-26.25 3.25-21.85 0.95-17.45 0.95-14.4 0.95-11.35 2.2-9.6L2.2-9.6Q4.25-6.75 7.65-6.75L7.65-6.75Q10.25-6.75 12.25-8.47 14.25-10.2 14.25-12.85L14.25-12.85Q14.25-13.4 14.13-13.85 14-14.3 14.5-14.3ZM47.55-10.6L47.55-10.6Q47.55-8.85 44.2-4.75L44.2-4.75Q40.25 0.1 37.45 0.1L37.45 0.1 36.65 0.1Q35.35 0.1 34.6-1.25L34.6-1.25Q34-2.2 34-3.35L34-3.35Q34-6.35 38.37-11.78 42.75-17.2 45.45-17.2L45.45-17.2Q48-17.2 48-14.5L48-14.5Q48-13.8 47.75-12.7L47.75-12.7Q47.8-12.55 48.7-12.55 49.6-12.55 51.45-13.5L51.45-13.5Q51.4-12.65 47.5-11.05L47.5-11.05Q47.55-10.85 47.55-10.6ZM44.3-13.2L44.3-13.2Q42.6-13.2 39.47-9.2 36.35-5.2 36.35-3.3 36.35-1.4 37.55-1.4L37.55-1.4Q39.7-1.4 43-5.3 46.3-9.2 46.3-10.9L46.3-10.9Q45.5-11.35 44.3-13.2ZM65.25-15.25L65.25-15.25 65.95-15.4Q66.59-15.4 66.97-15 67.34-14.6 67.34-14.38 67.34-14.15 67.3-13.88 67.25-13.6 65.84-11.35L65.84-11.35Q64.09-8.3 62.95-6.2L62.95-6.2Q58.9 1.35 56.75 4.15L56.75 4.15Q52.15 10.25 48 10.25L48 10.25Q46.55 10.25 45.47 9.03 44.4 7.8 44.34 6.3L44.34 6.3Q44.5 5.7 44.8 5.7L44.8 5.7Q44.95 5.7 45.05 6.05L45.05 6.05Q45.3 7.35 46 8.05 46.7 8.75 47.4 8.75L47.4 8.75Q50.25 8.75 53.5 5L53.5 5Q55.65 2.5 58.25-2.3L58.25-2.3 60.75-7.25 57-3.45Q53.4 0 52.07 0 50.75 0 49.55-0.9L49.55-0.9Q48.2-1.9 48.2-3.55L48.2-3.55Q48.2-7.2 53.32-12.25 58.45-17.3 62.65-17.3L62.65-17.3Q64.34-17.3 64.84-16.2L64.84-16.2Q65-15.8 65.09-15.53 65.2-15.25 65.25-15.25ZM50.3-2.95L50.3-2.95Q50.3-1.15 51.55-1.15L51.55-1.15Q54.45-1.15 59.45-7.5L59.45-7.5 64.75-14.8Q64.45-15.5 63.5-15.5L63.5-15.5Q60.4-15.5 55.34-10.73 50.3-5.95 50.3-2.95ZM81.04 0.3L81.04 0.3Q80.79 0.35 79.97 0.35 79.14 0.35 78.32-0.3 77.49-0.95 77.49-1.98 77.49-3 77.87-4.25 78.24-5.5 78.39-6.15L78.39-6.15Q72.64 0.55 69.39 0.55L69.39 0.55Q67.34 0.55 67.14-2L67.14-2Q67.14-2.2 67.14-2.35L67.14-2.35Q67.14-4.5 69.74-8.15L69.74-8.15Q68.29-6.85 66.79-5.15L66.79-5.15Q66.59-4.95 66.29-4.95L66.29-4.95Q66.09-4.95 66.09-5.2 66.09-5.45 66.54-6.05L66.54-6.05 73.44-14.15Q74.74-15.65 76.09-15.65 77.44-15.65 77.44-14.75L77.44-14.75Q77.44-14.4 77.14-14.1L77.14-14.1Q75.14-12.25 72.12-7.95 69.09-3.65 69.09-1.6L69.09-1.6Q69.09-0.7 69.69-0.7L69.69-0.7Q71.79-0.7 75.79-4.85L75.79-4.85Q77.19-6.25 80.99-11.03 84.79-15.8 85.99-15.8L85.99-15.8Q87.79-15.8 87.79-14.4L87.79-14.4Q87.79-13.9 85.69-11.5L85.69-11.5Q82.84-8.05 81.34-5.88 79.84-3.7 79.84-2.35 79.84-1 80.59-1L80.59-1Q80.94-1 81.39-1.2L81.39-1.2Q84.84-2.7 89.64-8.2L89.64-8.2Q89.94-8.55 90.24-8.55 90.54-8.55 90.54-8.22 90.54-7.9 90.19-7.5L90.19-7.5Q88.04-5 85.14-2.48 82.24 0.05 81.04 0.3ZM90.84 0.65L90.84 0.65Q90.29 0.65 89.84 0.5L89.84 0.5Q86.64-0.4 86.64-3.1L86.64-3.1Q86.64-6.6 91.04-11.2 95.44-15.8 98.94-15.8L98.94-15.8Q100.09-15.8 100.82-15.18 101.54-14.55 101.54-13.65L101.54-13.65Q101.54-10.85 97.32-8.3 93.09-5.75 90.44-5.75L90.44-5.75Q90.04-5.75 89.74-5.85L89.74-5.85Q88.99-4.5 88.99-3L88.99-3Q88.99-0.4 91.47-0.4 93.94-0.4 97.89-3.75L97.89-3.75Q100.94-6.2 103.09-8.95L103.09-8.95Q103.54-9.55 103.87-9.55 104.19-9.55 104.19-9.25 104.19-8.95 103.79-8.4L103.79-8.4Q101.09-4.85 97.29-2.1 93.49 0.65 90.84 0.65ZM100.29-13.75L100.29-13.75Q100.29-14.35 99.02-14.35 97.74-14.35 95.39-12.4L95.39-12.4Q92.24-9.8 90.49-6.95L90.49-6.95Q90.79-6.85 91.14-6.85L91.14-6.85Q93.04-6.85 96.22-8.88 99.39-10.9 100.19-13.3L100.19-13.3Q100.29-13.55 100.29-13.75ZM125.54-14.3L125.54-14.3Q126.24-14.3 126.24-12.65L126.24-12.65Q126.24-10.15 123.76-7.98 121.29-5.8 118.09-5.8L118.09-5.8Q116.04-5.8 114.14-6.8L114.14-6.8Q110.09-9 110.09-14.45L110.09-14.45Q110.09-18.3 112.19-22L112.19-22Q115.09-27.05 120.51-30 125.94-32.95 131.09-32.95L131.09-32.95Q134.84-32.95 137.24-31.3L137.24-31.3Q139.94-29.45 139.94-25.8L139.94-25.8Q139.94-21.15 135.44-11.23 130.94-1.3 130.94 0L130.94 0Q130.94 0.4 131.19 0.25L131.19 0.25Q132.49-0.6 143.11-13.33 153.74-26.05 157.89-29.05L157.89-29.05Q161.59-31.8 164.06-33.18 166.54-34.55 169.14-34.55L169.14-34.55Q169.84-34.55 170.19-34.5L170.19-34.5Q171.54-34.4 171.54-33.1L171.54-33.1Q171.54-32.45 171.09-32.45L171.09-32.45Q171.04-32.45 170.39-32.68 169.74-32.9 169.29-32.9L169.29-32.9Q162.29-32.9 150.44-20.25L150.44-20.25Q145.99-15.5 139.61-7.45 133.24 0.6 132.09 1.25L132.09 1.25Q128.04 3.55 127.54 3.55L127.54 3.55Q127.39 3.55 127.39 3.05L127.39 3.05Q127.39 1.4 130.19-5.35L130.19-5.35Q131.34-7.95 133.54-13.15L133.54-13.15 135.84-19.9Q137.04-23.3 137.04-24.85L137.04-24.85Q137.04-28.3 135.04-30.1 133.04-31.9 129.29-31.9 125.54-31.9 121.24-29.25L121.24-29.25Q116.59-26.25 114.29-21.85 111.99-17.45 111.99-14.4 111.99-11.35 113.24-9.6L113.24-9.6Q115.29-6.75 118.69-6.75L118.69-6.75Q121.29-6.75 123.29-8.47 125.29-10.2 125.29-12.85L125.29-12.85Q125.29-13.4 125.16-13.85 125.04-14.3 125.54-14.3ZM156.38-20.4Q157.13-20.4 157.81-19.93 158.48-19.45 158.48-18.8 158.48-18.15 157.86-17.68 157.23-17.2 156.48-17.2 155.73-17.2 155.11-17.75 154.48-18.3 154.48-19L154.48-19Q154.48-20.4 156.38-20.4L156.38-20.4ZM147.33 0.55L147.33 0.55Q144.78 0.55 144.78-2.75L144.78-2.75Q144.78-5.45 147.73-10.23 150.68-15 152.48-15.05L152.48-15.05Q152.98-15.05 153.61-14.65 154.23-14.25 154.23-13.85L154.23-13.85Q153.98-13.5 153.63-13.08 153.28-12.65 152.88-12.15 152.48-11.65 151.78-10.73 151.08-9.8 150.43-8.95L150.43-8.95Q146.68-4.1 146.68-2.27 146.68-0.45 147.93-0.45L147.93-0.45Q148.98-0.45 150.78-1.6L150.78-1.6Q154.98-4.2 157.43-7.3L157.43-7.3Q158.33-8.45 158.66-8.45 158.98-8.45 158.98-8.05 158.98-7.65 157.83-6.45 156.68-5.25 156.01-4.55 155.33-3.85 155.08-3.63 154.83-3.4 154.16-2.78 153.48-2.15 153.13-1.9 152.78-1.65 152.13-1.15 151.48-0.65 150.98-0.43 150.48-0.2 149.83 0.1L149.83 0.1Q148.78 0.55 147.33 0.55ZM167.63-1.8L166.03-0.75Q164.58 0.1 162.46 0.1 160.33 0.1 159.21-1.3 158.08-2.7 157.28-5.75L157.28-5.75Q156.38-4.85 156.03-4.85L156.03-4.85Q155.78-4.85 155.78-5.2 155.78-5.55 156.03-5.8L156.03-5.8Q157.68-7.85 161.63-11.7L161.63-11.7 167.93-17.6Q170.63-20.15 171.13-20.15L171.13-20.15Q172.73-20.15 172.73-18.95L172.73-18.95Q172.73-18.35 172.26-17.78 171.78-17.2 171.56-16.88 171.33-16.55 171.08-16.25L171.08-16.25Q170.18-14.7 169.26-9.85 168.33-5 167.83-3.1L167.83-3.1Q171.98-3.15 176.38-8.5L176.38-8.5Q176.88-9 177.13-9 177.38-9 177.38-8.68 177.38-8.35 176.93-7.8L176.93-7.8Q174.03-4.4 171.53-3.05L171.53-3.05Q170.03-2.3 167.63-1.8L167.63-1.8ZM159.28-6.3L159.28-6.3Q159.28-4.6 160.41-3.53 161.53-2.45 162.93-2.45 164.33-2.45 165.08-3L165.08-3Q166.08-3.55 167.06-7.6 168.03-11.65 168.23-14.75L168.23-14.75 168.43-16.45Q165.68-14.4 162.56-11.15 159.43-7.9 159.33-6.85L159.33-6.85Q159.28-6.55 159.28-6.3ZM187.83-16.1L187.83-16.1 195.03-16.2Q195.18-16.1 195.18-16.05L195.18-16.05Q195.18-15.6 188.95-14.8 182.73-14 182.23-13.85L182.23-13.85Q181.28-13 178.73-8.78 176.18-4.55 176.18-2.6L176.18-2.6Q176.18-0.75 178.73-0.75L178.73-0.75Q179.93-0.75 181.88-1.5 183.83-2.25 184.88-2.9L184.88-2.9Q187.68-4.65 190.88-8.05L190.88-8.05Q191.58-8.75 191.83-8.75L191.83-8.75Q191.98-8.75 191.98-8.45 191.98-8.15 191.23-7.25L191.23-7.25Q188.63-4.05 185.38-2.1L185.38-2.1Q181.48 0.3 177.93 0.3L177.93 0.3Q176.38 0.3 175.4-0.38 174.43-1.05 174.43-3.1 174.43-5.15 176.23-8.72 178.03-12.3 178.98-14.05L178.98-14.05Q178.28-13.9 177.78-13.9L177.78-13.9Q176.33-13.9 176.33-15.05L176.33-15.05Q176.33-15.9 177.53-16.25L177.53-16.25Q177.68-16.25 177.98-16.3L177.98-16.3 180.88-16.3Q181.78-17.45 182.93-18.95L182.93-18.95Q184.33-20.75 184.83-20.75 185.33-20.75 186.08-20.35 186.83-19.95 186.83-19.4 186.83-18.85 184.43-16.15L184.43-16.15Q185.73-16.1 187.83-16.1ZM206.23-14.95L206.23-14.95 206.93-15.1Q207.48-15.1 207.98-14.65 208.48-14.2 208.48-13.95 208.48-13.7 205.38-9.13 202.28-4.55 202.28-2.75L202.28-2.75Q202.28-2.6 202.33-2.45L202.33-2.45Q202.58-1.3 203.43-1.3L203.43-1.3Q206.03-1.3 212.93-9.9L212.93-9.9Q213.08-10.1 213.28-10.1 213.48-10.1 213.48-9.73 213.48-9.35 213.03-8.75L213.03-8.75Q206.63-0.2 203.28-0.2L203.28-0.2Q202.83-0.2 202.43-0.35L202.43-0.35Q200.23-1.2 200.23-3.65L200.23-3.65Q200.23-4.5 200.43-5.35L200.43-5.35 197.33-2.35Q194.38 0.25 193.05 0.25 191.73 0.25 190.53-0.6L190.53-0.6Q189.18-1.6 189.18-3.25L189.18-3.25Q189.18-6.9 194.28-11.98 199.38-17.05 203.63-17.05L203.63-17.05Q205.28-17.05 205.83-15.9L205.83-15.9Q205.98-15.5 206.08-15.23 206.18-14.95 206.23-14.95ZM191.28-2.65L191.28-2.65Q191.28-0.85 192.53-0.85L192.53-0.85Q195.43-0.85 200.43-7.2L200.43-7.2 205.73-14.5Q205.33-15.2 204.43-15.2L204.43-15.2Q201.38-15.2 196.33-10.48 191.28-5.75 191.28-2.65Z" opacity="1" transform="matrix(1,0,0,1,0,0)" fill="#1f1816" class="wordmark-text-0" data-fill-palette-color="primary" id="text-0"></path></svg></g></svg></g></svg></g></svg></g></svg></g></svg></g></svg></g><path d="M191.966 92.068L191.966 31.734 8.234 31.734 8.234 215.466 191.966 215.466 191.966 155.132 187.361 155.132 187.361 210.861 12.839 210.861 12.839 36.339 187.361 36.339 187.361 92.068Z" fill="#ef5b2a" stroke="transparent" data-fill-palette-color="tertiary"></path></svg></g><defs></defs></svg><rect width="395.52" height="247.2" fill="none" stroke="none" visibility="hidden"></rect></g></svg></g></svg>